<svg xmlns="http://www.w3.org/2000/svg" viewBox="0 0 1200 630" width="100%" height="100%" preserveAspectRatio="xMidYMid slice" class="cosy-cover-art" data-motif="tea-stain" data-seed="replace-50-overused-phrases-it" data-lang="it">
      <style>
        @media (prefers-reduced-motion: reduce) {
          .cosy-cover-art * { animation: none !important; transition: none !important; }
        }
      </style>

    <rect width="1200" height="630" fill="#d69e2e" />

      <ellipse cx="65" cy="465" rx="212" ry="159" fill="#16a34a" opacity="0.28" transform="rotate(313 65 465)" style="filter: blur(10px);" />
      <ellipse cx="77" cy="459" rx="127.19999999999999" ry="95.39999999999999" fill="#0d9488" opacity="0.18" transform="rotate(313 65 465)" style="filter: blur(6px);" />

      <ellipse cx="919" cy="50" rx="177" ry="57" fill="#16a34a" opacity="0.28" transform="rotate(218 919 50)" style="filter: blur(10px);" />
      <ellipse cx="931" cy="44" rx="106.2" ry="34.199999999999996" fill="#0d9488" opacity="0.18" transform="rotate(218 919 50)" style="filter: blur(6px);" />

      <ellipse cx="481" cy="168" rx="125" ry="140" fill="#16a34a" opacity="0.28" transform="rotate(345 481 168)" style="filter: blur(10px);" />
      <ellipse cx="493" cy="162" rx="75" ry="84" fill="#0d9488" opacity="0.18" transform="rotate(345 481 168)" style="filter: blur(6px);" />

      <ellipse cx="52" cy="568" rx="119" ry="144" fill="#16a34a" opacity="0.28" transform="rotate(174 52 568)" style="filter: blur(10px);" />
      <ellipse cx="64" cy="562" rx="71.39999999999999" ry="86.39999999999999" fill="#0d9488" opacity="0.18" transform="rotate(174 52 568)" style="filter: blur(6px);" />



      <g class="cover-text-overlay">
        <rect class="cover-overlay-box" x="24" y="436" width="1152" height="170" rx="8" fill="rgba(15, 23, 42, 0.82)" backdrop-filter="blur(6px)" stroke="rgba(255,255,255,0.12)" stroke-width="1" />
        <text x="54" y="474" fill="#16a34a" font-family="Fraunces, 'Lora', Georgia, serif" font-size="17" font-weight="bold" letter-spacing="1.5">WORDS • Vol. 2026.09</text>
        <text x="54" y="510" fill="#ffffff" font-family="Fraunces, 'Lora', Georgia, serif" font-size="24" font-weight="bold">Basta ripetere queste 50 frasi!</text>
<text x="54" y="542" fill="#ffffff" font-family="Fraunces, 'Lora', Georgia, serif" font-size="24" font-weight="bold">Alternative naturali per il</text>
<text x="54" y="574" fill="#ffffff" font-family="Fraunces, 'Lora', Georgia, serif" font-size="24" font-weight="bold">livello intermedio</text>
      </g>

    </svg>