<svg xmlns="http://www.w3.org/2000/svg" viewBox="0 0 1200 630" width="100%" height="100%" class="cosy-cover-art" data-motif="tea-stain" data-seed="replace-very-50-stronger-adjectives-it">
      <style>
        @media (prefers-reduced-motion: reduce) {
          .cosy-cover-art * { animation: none !important; transition: none !important; }
        }
      </style>

    <rect width="1200" height="630" fill="#d69e2e" />

      <ellipse cx="422" cy="233" rx="139" ry="133" fill="#1e293b" opacity="0.25" transform="rotate(333 422 233)" style="filter: blur(12px);" />
      <ellipse cx="432" cy="228" rx="83.39999999999999" ry="79.8" fill="#0d9488" opacity="0.15" transform="rotate(333 422 233)" style="filter: blur(8px);" />

      <ellipse cx="947" cy="156" rx="156" ry="89" fill="#1e293b" opacity="0.25" transform="rotate(119 947 156)" style="filter: blur(12px);" />
      <ellipse cx="957" cy="151" rx="93.6" ry="53.4" fill="#0d9488" opacity="0.15" transform="rotate(119 947 156)" style="filter: blur(8px);" />

      <ellipse cx="349" cy="234" rx="70" ry="116" fill="#1e293b" opacity="0.25" transform="rotate(323 349 234)" style="filter: blur(12px);" />
      <ellipse cx="359" cy="229" rx="42" ry="69.6" fill="#0d9488" opacity="0.15" transform="rotate(323 349 234)" style="filter: blur(8px);" />

      <ellipse cx="698" cy="432" rx="142" ry="89" fill="#1e293b" opacity="0.25" transform="rotate(36 698 432)" style="filter: blur(12px);" />
      <ellipse cx="708" cy="427" rx="85.2" ry="53.4" fill="#0d9488" opacity="0.15" transform="rotate(36 698 432)" style="filter: blur(8px);" />

      <ellipse cx="255" cy="444" rx="178" ry="78" fill="#1e293b" opacity="0.25" transform="rotate(103 255 444)" style="filter: blur(12px);" />
      <ellipse cx="265" cy="439" rx="106.8" ry="46.8" fill="#0d9488" opacity="0.15" transform="rotate(103 255 444)" style="filter: blur(8px);" />

      <ellipse cx="883" cy="403" rx="146" ry="99" fill="#1e293b" opacity="0.25" transform="rotate(28 883 403)" style="filter: blur(12px);" />
      <ellipse cx="893" cy="398" rx="87.6" ry="59.4" fill="#0d9488" opacity="0.15" transform="rotate(28 883 403)" style="filter: blur(8px);" />



      <g class="cover-text-overlay">
        <rect x="20" y="520" width="1160" height="90" rx="8" fill="rgba(15, 23, 42, 0.75)" backdrop-filter="blur(4px)" />
        <text x="36" y="548" fill="#f59e0b" font-family="Fraunces, serif" font-size="12" font-weight="bold" letter-spacing="1.5">WORDS • Vol. 2026.09</text>
        <text x="36" y="582" fill="#ffffff" font-family="Fraunces, serif" font-size="20" font-weight="bold">Basta dire 'Molto'! 50 aggettivi forti per arricchir...</text>
      </g>

    </svg>