<svg xmlns="http://www.w3.org/2000/svg" viewBox="0 0 1200 630" width="100%" height="100%" class="cosy-cover-art" data-motif="tea-stain" data-seed="replace-50-overused-phrases-el">
      <style>
        @media (prefers-reduced-motion: reduce) {
          .cosy-cover-art * { animation: none !important; transition: none !important; }
        }
      </style>

    <rect width="1200" height="630" fill="#d69e2e" />

      <ellipse cx="906" cy="248" rx="163" ry="59" fill="#1e293b" opacity="0.25" transform="rotate(71 906 248)" style="filter: blur(12px);" />
      <ellipse cx="916" cy="243" rx="97.8" ry="35.4" fill="#0d9488" opacity="0.15" transform="rotate(71 906 248)" style="filter: blur(8px);" />

      <ellipse cx="468" cy="308" rx="151" ry="58" fill="#1e293b" opacity="0.25" transform="rotate(174 468 308)" style="filter: blur(12px);" />
      <ellipse cx="478" cy="303" rx="90.6" ry="34.8" fill="#0d9488" opacity="0.15" transform="rotate(174 468 308)" style="filter: blur(8px);" />

      <ellipse cx="505" cy="274" rx="75" ry="109" fill="#1e293b" opacity="0.25" transform="rotate(314 505 274)" style="filter: blur(12px);" />
      <ellipse cx="515" cy="269" rx="45" ry="65.39999999999999" fill="#0d9488" opacity="0.15" transform="rotate(314 505 274)" style="filter: blur(8px);" />

      <ellipse cx="783" cy="238" rx="88" ry="95" fill="#1e293b" opacity="0.25" transform="rotate(357 783 238)" style="filter: blur(12px);" />
      <ellipse cx="793" cy="233" rx="52.8" ry="57" fill="#0d9488" opacity="0.15" transform="rotate(357 783 238)" style="filter: blur(8px);" />



      <g class="cover-text-overlay">
        <rect x="20" y="520" width="1160" height="90" rx="8" fill="rgba(15, 23, 42, 0.75)" backdrop-filter="blur(4px)" />
        <text x="36" y="548" fill="#f59e0b" font-family="Fraunces, serif" font-size="12" font-weight="bold" letter-spacing="1.5">WORDS • Vol. 2026.09</text>
        <text x="36" y="582" fill="#ffffff" font-family="Fraunces, serif" font-size="20" font-weight="bold">Σταματήστε να επαναλαμβάνετε αυτές τις 50 φράσεις! Φ...</text>
      </g>

    </svg>