<svg xmlns="http://www.w3.org/2000/svg" viewBox="0 0 1200 630" width="100%" height="100%" preserveAspectRatio="xMidYMid slice" class="cosy-cover-art" data-motif="tea-stain" data-seed="replace-50-overused-phrases" data-lang="en">
      <style>
        @media (prefers-reduced-motion: reduce) {
          .cosy-cover-art * { animation: none !important; transition: none !important; }
        }
      </style>

    <rect width="1200" height="630" fill="#d69e2e" />

      <ellipse cx="1167" cy="219" rx="93" ry="101" fill="#0d9488" opacity="0.28" transform="rotate(186 1167 219)" style="filter: blur(10px);" />
      <ellipse cx="1179" cy="213" rx="55.8" ry="60.599999999999994" fill="#0d9488" opacity="0.18" transform="rotate(186 1167 219)" style="filter: blur(6px);" />

      <ellipse cx="635" cy="525" rx="175" ry="132" fill="#0d9488" opacity="0.28" transform="rotate(200 635 525)" style="filter: blur(10px);" />
      <ellipse cx="647" cy="519" rx="105" ry="79.2" fill="#0d9488" opacity="0.18" transform="rotate(200 635 525)" style="filter: blur(6px);" />

      <ellipse cx="214" cy="576" rx="159" ry="107" fill="#0d9488" opacity="0.28" transform="rotate(8 214 576)" style="filter: blur(10px);" />
      <ellipse cx="226" cy="570" rx="95.39999999999999" ry="64.2" fill="#0d9488" opacity="0.18" transform="rotate(8 214 576)" style="filter: blur(6px);" />

      <ellipse cx="923" cy="533" rx="109" ry="51" fill="#0d9488" opacity="0.28" transform="rotate(325 923 533)" style="filter: blur(10px);" />
      <ellipse cx="935" cy="527" rx="65.39999999999999" ry="30.599999999999998" fill="#0d9488" opacity="0.18" transform="rotate(325 923 533)" style="filter: blur(6px);" />

      <ellipse cx="417" cy="21" rx="185" ry="156" fill="#0d9488" opacity="0.28" transform="rotate(154 417 21)" style="filter: blur(10px);" />
      <ellipse cx="429" cy="15" rx="111" ry="93.6" fill="#0d9488" opacity="0.18" transform="rotate(154 417 21)" style="filter: blur(6px);" />

      <ellipse cx="792" cy="494" rx="209" ry="140" fill="#0d9488" opacity="0.28" transform="rotate(90 792 494)" style="filter: blur(10px);" />
      <ellipse cx="804" cy="488" rx="125.39999999999999" ry="84" fill="#0d9488" opacity="0.18" transform="rotate(90 792 494)" style="filter: blur(6px);" />

      <ellipse cx="891" cy="292" rx="159" ry="67" fill="#0d9488" opacity="0.28" transform="rotate(6 891 292)" style="filter: blur(10px);" />
      <ellipse cx="903" cy="286" rx="95.39999999999999" ry="40.199999999999996" fill="#0d9488" opacity="0.18" transform="rotate(6 891 292)" style="filter: blur(6px);" />



      <g class="cover-text-overlay">
        <rect class="cover-overlay-box" x="24" y="436" width="1152" height="170" rx="8" fill="rgba(15, 23, 42, 0.82)" backdrop-filter="blur(6px)" stroke="rgba(255,255,255,0.12)" stroke-width="1" />
        <text x="54" y="474" fill="#0d9488" font-family="Fraunces, 'Lora', Georgia, serif" font-size="17" font-weight="bold" letter-spacing="1.5">WORDS • Vol. 2026.09</text>
        <text x="54" y="510" fill="#ffffff" font-family="Fraunces, 'Lora', Georgia, serif" font-size="24" font-weight="bold">Stop Saying These 50 Phrases!</text>
<text x="54" y="542" fill="#ffffff" font-family="Fraunces, 'Lora', Georgia, serif" font-size="24" font-weight="bold">Natural Conversational Upgrades</text>
<text x="54" y="574" fill="#ffffff" font-family="Fraunces, 'Lora', Georgia, serif" font-size="24" font-weight="bold">for Intermediate English</text>
      </g>

    </svg>