<svg xmlns="http://www.w3.org/2000/svg" viewBox="0 0 1200 630" width="100%" height="100%" preserveAspectRatio="xMidYMid slice" class="cosy-cover-art" data-motif="ticket-stub" data-seed="stop-translating-10-sentence-frames-el" data-lang="el">
      <style>
        @media (prefers-reduced-motion: reduce) {
          .cosy-cover-art * { animation: none !important; transition: none !important; }
        }
      </style>

    <rect width="1200" height="630" fill="#f59e0b" />

      <g transform="rotate(-4 110.5 140)">
        <rect x="-3" y="92" width="227" height="96" rx="8" fill="#0d9488" opacity="0.85" />
        <circle cx="-3" cy="140" r="12" fill="#f59e0b" />
        <circle cx="224" cy="140" r="12" fill="#f59e0b" />
        <line x1="42" y1="104" x2="42" y2="176" stroke="#f59e0b" stroke-dasharray="4 4" stroke-width="2" />
        <text x="57" y="127" fill="#f59e0b" font-family="Fraunces, serif" font-size="13" font-weight="bold">COSY GAZETTE</text>
        <text x="57" y="150" fill="#f59e0b" font-family="DM Sans, sans-serif" font-size="11" opacity="0.85">ADMIT ONE • PASS</text>
      </g>

      <g transform="rotate(14 1092 268.5)">
        <rect x="986" y="207" width="212" height="123" rx="8" fill="#faf7f2" opacity="0.85" />
        <circle cx="986" cy="268.5" r="12" fill="#f59e0b" />
        <circle cx="1198" cy="268.5" r="12" fill="#f59e0b" />
        <line x1="1031" y1="219" x2="1031" y2="318" stroke="#f59e0b" stroke-dasharray="4 4" stroke-width="2" />
        <text x="1046" y="242" fill="#f59e0b" font-family="Fraunces, serif" font-size="13" font-weight="bold">COSY GAZETTE</text>
        <text x="1046" y="265" fill="#f59e0b" font-family="DM Sans, sans-serif" font-size="11" opacity="0.85">ADMIT ONE • PASS</text>
      </g>

      <g transform="rotate(0 854 129.5)">
        <rect x="743" y="84" width="222" height="91" rx="8" fill="#0d9488" opacity="0.85" />
        <circle cx="743" cy="129.5" r="12" fill="#f59e0b" />
        <circle cx="965" cy="129.5" r="12" fill="#f59e0b" />
        <line x1="788" y1="96" x2="788" y2="163" stroke="#f59e0b" stroke-dasharray="4 4" stroke-width="2" />
        <text x="803" y="119" fill="#f59e0b" font-family="Fraunces, serif" font-size="13" font-weight="bold">COSY GAZETTE</text>
        <text x="803" y="142" fill="#f59e0b" font-family="DM Sans, sans-serif" font-size="11" opacity="0.85">ADMIT ONE • PASS</text>
      </g>

      <g transform="rotate(3 764 113.5)">
        <rect x="658" y="53" width="212" height="121" rx="8" fill="#faf7f2" opacity="0.85" />
        <circle cx="658" cy="113.5" r="12" fill="#f59e0b" />
        <circle cx="870" cy="113.5" r="12" fill="#f59e0b" />
        <line x1="703" y1="65" x2="703" y2="162" stroke="#f59e0b" stroke-dasharray="4 4" stroke-width="2" />
        <text x="718" y="88" fill="#f59e0b" font-family="Fraunces, serif" font-size="13" font-weight="bold">COSY GAZETTE</text>
        <text x="718" y="111" fill="#f59e0b" font-family="DM Sans, sans-serif" font-size="11" opacity="0.85">ADMIT ONE • PASS</text>
      </g>



      <g class="cover-text-overlay">
        <rect class="cover-overlay-box" x="24" y="451" width="1152" height="155" rx="8" fill="rgba(15, 23, 42, 0.82)" backdrop-filter="blur(6px)" stroke="rgba(255,255,255,0.12)" stroke-width="1" />
        <text x="54" y="489" fill="#0284c7" font-family="Fraunces, 'Lora', Georgia, serif" font-size="17" font-weight="bold" letter-spacing="1.5">SAY IT • Vol. 2026.10</text>
        <text x="54" y="523" fill="#ffffff" font-family="Fraunces, 'Lora', Georgia, serif" font-size="21" font-weight="bold">Σταματήστε τη μετάφραση! 10</text>
<text x="54" y="550" fill="#ffffff" font-family="Fraunces, 'Lora', Georgia, serif" font-size="21" font-weight="bold">επαναχρησιμοποιήσιμες δομές προτάσεων</text>
<text x="54" y="577" fill="#ffffff" font-family="Fraunces, 'Lora', Georgia, serif" font-size="21" font-weight="bold">για να μιλάτε από την πρώτη μέρα</text>
      </g>

    </svg>