<svg xmlns="http://www.w3.org/2000/svg" viewBox="0 0 1200 630" width="100%" height="100%" preserveAspectRatio="xMidYMid slice" class="cosy-cover-art" data-motif="tea-stain" data-seed="top-10-verb-synonyms-intermediate-plateau-it" data-lang="it">
      <defs>
        <filter id="soft-shadow" x="-20%" y="-20%" width="140%" height="140%">
          <feDropShadow dx="2" dy="3" stdDeviation="3" flood-color="#3C281E" flood-opacity="0.10" />
        </filter>
        <filter id="paper-grain" x="0%" y="0%" width="100%" height="100%">
          <feTurbulence type="fractalNoise" baseFrequency="0.65" numOctaves="3" result="noise" />
          <feColorMatrix type="saturate" values="0" />
          <feComponentTransfer>
            <feFuncA type="linear" slope="0.05" />
          </feComponentTransfer>
          <feBlend mode="multiply" in="SourceGraphic" result="blend" />
        </filter>
      </defs>
      <style>
        @media (prefers-reduced-motion: reduce) {
          .cosy-cover-art * { animation: none !important; transition: none !important; }
        }
      </style>

    <rect width="1200" height="630" fill="#d69e2e" />

      <ellipse cx="365" cy="384" rx="177" ry="65" fill="#faf7f2" opacity="0.15" transform="rotate(198 365 384)" style="filter: blur(12px);" />
      <ellipse cx="375" cy="379" rx="106.2" ry="39" fill="#3A6332" opacity="0.12" transform="rotate(198 365 384)" style="filter: blur(8px);" />

      <ellipse cx="388" cy="72" rx="93" ry="77" fill="#faf7f2" opacity="0.15" transform="rotate(113 388 72)" style="filter: blur(12px);" />
      <ellipse cx="398" cy="67" rx="55.8" ry="46.199999999999996" fill="#3A6332" opacity="0.12" transform="rotate(113 388 72)" style="filter: blur(8px);" />

      <ellipse cx="421" cy="346" rx="132" ry="113" fill="#faf7f2" opacity="0.15" transform="rotate(280 421 346)" style="filter: blur(12px);" />
      <ellipse cx="431" cy="341" rx="79.2" ry="67.8" fill="#3A6332" opacity="0.12" transform="rotate(280 421 346)" style="filter: blur(8px);" />

      <ellipse cx="547" cy="524" rx="151" ry="99" fill="#faf7f2" opacity="0.15" transform="rotate(12 547 524)" style="filter: blur(12px);" />
      <ellipse cx="557" cy="519" rx="90.6" ry="59.4" fill="#3A6332" opacity="0.12" transform="rotate(12 547 524)" style="filter: blur(8px);" />

      <ellipse cx="132" cy="595" rx="148" ry="96" fill="#faf7f2" opacity="0.15" transform="rotate(165 132 595)" style="filter: blur(12px);" />
      <ellipse cx="142" cy="590" rx="88.8" ry="57.599999999999994" fill="#3A6332" opacity="0.12" transform="rotate(165 132 595)" style="filter: blur(8px);" />

      <ellipse cx="910" cy="599" rx="116" ry="125" fill="#faf7f2" opacity="0.15" transform="rotate(56 910 599)" style="filter: blur(12px);" />
      <ellipse cx="920" cy="594" rx="69.6" ry="75" fill="#3A6332" opacity="0.12" transform="rotate(56 910 599)" style="filter: blur(8px);" />

      <ellipse cx="619" cy="625" rx="132" ry="124" fill="#faf7f2" opacity="0.15" transform="rotate(294 619 625)" style="filter: blur(12px);" />
      <ellipse cx="629" cy="620" rx="79.2" ry="74.39999999999999" fill="#3A6332" opacity="0.12" transform="rotate(294 619 625)" style="filter: blur(8px);" />



      <g transform="rotate(7 669.5 337.5)">
        <rect x="513" y="220" width="313" height="235" rx="6" fill="#faf7f2" opacity="0.3" stroke="#3A6332" stroke-width="1" filter="url(#soft-shadow)" />
      </g>

      <g transform="rotate(9 859.5 287)">
        <rect x="625" y="140" width="469" height="294" rx="6" fill="#faf7f2" opacity="0.3" stroke="#3A6332" stroke-width="1" filter="url(#soft-shadow)" />
      </g>

      <g transform="rotate(7 531 394)">
        <rect x="353" y="229" width="356" height="330" rx="6" fill="#d69e2e" opacity="0.3" stroke="#3A6332" stroke-width="1" filter="url(#soft-shadow)" />
      </g>


    <g class="cover-torn-paper" filter="url(#soft-shadow)">
      <polygon points="1015,0 1200,0 1200,283.5 1185,264.59999999999997 1165,289.8 1140,239.4 1110,258.3 1080,220.5 1050,245.70000000000002 1020,201.6 1035,157.5 1015,0" fill="#FCF9F2" opacity="0.9" stroke="#3A6332" stroke-width="0.8" stroke-dasharray="3 2" />
    </g>


    <g transform="rotate(-5 321 31)" filter="url(#soft-shadow)">
      <rect x="261" y="19" width="120" height="24" rx="2" fill="#faf7f2" opacity="0.45" />
      <line x1="261" y1="19" x2="261" y2="43" stroke="#FFFFFF" stroke-width="2" stroke-dasharray="2 2" opacity="0.7" />
      <line x1="381" y1="19" x2="381" y2="43" stroke="#FFFFFF" stroke-width="2" stroke-dasharray="2 2" opacity="0.7" />
    </g>


    <g class="cover-tiny-doodles" stroke="#3A6332" stroke-width="1.5" fill="none" opacity="0.7">
      <!-- Four-pointed sparkle doodle -->
      <path d="M 1070 49 Q 1070 61 1082 61 Q 1070 61 1070 73 Q 1070 61 1058 61 Q 1070 61 1070 49 Z" fill="#faf7f2" opacity="0.3" />
      <path d="M 1115 91 Q 1115 99 1123 99 Q 1115 99 1115 107 Q 1115 99 1107 99 Q 1115 99 1115 91 Z" stroke="#faf7f2" stroke-width="1" />
      <!-- Botanical sprig doodle -->
      <path d="M 40 142 C 50 127, 35 107, 55 92" />
      <circle cx="44" cy="127" r="3" fill="#3A6332" opacity="0.5" />
      <circle cx="50" cy="110" r="3" fill="#faf7f2" opacity="0.5" />
    </g>


    <g class="cover-sketchy-underline">
      <path d="M 59 600 Q 173 603 286 598" stroke="#faf7f2" stroke-width="2.5" stroke-linecap="round" fill="none" opacity="0.75" />
      <path d="M 69 603 Q 173 606 276 602" stroke="#3A6332" stroke-width="1.5" stroke-linecap="round" fill="none" opacity="0.5" />
    </g>


    <g class="cover-masthead-label" filter="url(#soft-shadow)">
      <rect x="20" y="20" width="220" height="30" rx="4" fill="#FCF9F2" opacity="0.95" stroke="#faf7f2" stroke-width="1.2" />
      <text x="34" y="40" fill="#0d9488" font-family="Fraunces, 'Lora', Georgia, serif" font-size="11" font-weight="bold" letter-spacing="1.4">COSY GAZETTE • WORDS</text>
    </g>


      <g class="cover-text-overlay" filter="url(#soft-shadow)">
        <!-- Warm paper card overlay -->
        <rect class="cover-overlay-box" x="24" y="436" width="1152" height="170" rx="8" fill="#FCF9F2" opacity="0.96" stroke="#3A6332" stroke-width="1.2" />
        <text x="54" y="474" fill="#3A6332" font-family="Fraunces, 'Lora', Georgia, serif" font-size="17" font-weight="bold" letter-spacing="1.5">WORDS • Vol. 2026.09</text>
        <text x="54" y="510" fill="#0d9488" font-family="Fraunces, 'Lora', Georgia, serif" font-size="24" font-weight="bold">I 10 verbi più abusati e i loro</text>
<text x="54" y="542" fill="#0d9488" font-family="Fraunces, 'Lora', Georgia, serif" font-size="24" font-weight="bold">sinonimi precisi per il livello</text>
<text x="54" y="574" fill="#0d9488" font-family="Fraunces, 'Lora', Georgia, serif" font-size="24" font-weight="bold">intermedio (B1–B2)</text>
      </g>

      <rect width="1200" height="630" filter="url(#paper-grain)" opacity="0.5" pointer-events="none" />
    </svg>