<svg xmlns="http://www.w3.org/2000/svg" viewBox="0 0 1200 630" width="100%" height="100%" preserveAspectRatio="xMidYMid slice" class="cosy-cover-art" data-motif="doodle-border" data-seed="top-100-a0-a1-greek" data-lang="en">
      <style>
        @media (prefers-reduced-motion: reduce) {
          .cosy-cover-art * { animation: none !important; transition: none !important; }
        }
      </style>

    <rect width="1200" height="630" fill="#f0fff4" />
    <path d="M 12 12 L 12 8 L 42 11 L 72 15 L 102 8 L 132 16 L 162 17 L 192 13 L 222 16 L 252 11 L 282 15 L 312 10 L 342 8 L 372 14 L 402 11 L 432 17 L 462 7 L 492 16 L 522 8 L 552 7 L 582 14 L 612 8 L 642 7 L 672 17 L 702 8 L 732 14 L 762 14 L 792 14 L 822 12 L 852 11 L 882 7 L 912 13 L 942 16 L 972 14 L 1002 8 L 1032 14 L 1062 16 L 1092 13 L 1122 13 L 1152 8 L 1182 9 L 1189 12 L 1188 42 L 1191 72 L 1188 102 L 1189 132 L 1190 162 L 1183 192 L 1184 222 L 1189 252 L 1191 282 L 1188 312 L 1186 342 L 1185 372 L 1185 402 L 1184 432 L 1189 462 L 1193 492 L 1191 522 L 1192 552 L 1183 582 L 1190 612 L 1188 620 L 1158 618 L 1128 620 L 1098 622 L 1068 616 L 1038 613 L 1008 618 L 978 617 L 948 615 L 918 622 L 888 621 L 858 614 L 828 619 L 798 621 L 768 622 L 738 619 L 708 619 L 678 620 L 648 618 L 618 623 L 588 615 L 558 614 L 528 623 L 498 614 L 468 620 L 438 623 L 408 617 L 378 622 L 348 620 L 318 623 L 288 621 L 258 623 L 228 619 L 198 618 L 168 619 L 138 619 L 108 618 L 78 623 L 48 621 L 18 619 L 14 618 L 8 588 L 7 558 L 14 528 L 7 498 L 17 468 L 16 438 L 17 408 L 9 378 L 10 348 L 10 318 L 13 288 L 16 258 L 15 228 L 14 198 L 14 168 L 13 138 L 17 108 L 15 78 L 7 48 L 7 18 Z" fill="none" stroke="#22543d" stroke-width="3" stroke-linecap="round" stroke-linejoin="round" />
    <circle cx="1170" cy="30" r="18" fill="#38a169" opacity="0.3" />
    <circle cx="30" cy="600" r="24" fill="#38a169" opacity="0.25" />


      <g class="cover-text-overlay">
        <rect class="cover-overlay-box" x="24" y="448" width="1152" height="158" rx="8" fill="rgba(15, 23, 42, 0.82)" backdrop-filter="blur(6px)" stroke="rgba(255,255,255,0.12)" stroke-width="1" />
        <text x="54" y="486" fill="#0d9488" font-family="Fraunces, 'Lora', Georgia, serif" font-size="17" font-weight="bold" letter-spacing="1.5">CURRICULUM • Vol. 2026 — August Issue</text>
        <text x="54" y="529" fill="#ffffff" font-family="Fraunces, 'Lora', Georgia, serif" font-size="33" font-weight="bold">Top 100 Greek A0–A1</text>
<text x="54" y="571" fill="#ffffff" font-family="Fraunces, 'Lora', Georgia, serif" font-size="33" font-weight="bold">Master Guide</text>
      </g>

    </svg>